<mxfile host="Electron" agent="Mozilla/5.0 (Windows NT 10.0; Win64; x64) AppleWebKit/537.36 (KHTML, like Gecko) draw.io/24.7.8 Chrome/128.0.6613.36 Electron/32.0.1 Safari/537.36" version="24.7.8" pages="2">
  <diagram name="Page-1" id="fb7Z-hw-UyqQSBY4uLWK">
    <mxGraphModel dx="880" dy="532" grid="1" gridSize="10" guides="1" tooltips="1" connect="1" arrows="1" fold="1" page="1" pageScale="1" pageWidth="827" pageHeight="1169" math="0" shadow="0">
      <root>
        <mxCell id="0" />
        <mxCell id="1" parent="0" />
        <mxCell id="Iuxv2gf0EKUoiWZildAj-1" value="&lt;font style=&quot;font-size: 24px;&quot;&gt;SMART STUDY HUB SYSTEM&lt;/font&gt;" style="text;html=1;align=center;verticalAlign=middle;resizable=0;points=[];autosize=1;strokeColor=none;fillColor=none;" parent="1" vertex="1">
          <mxGeometry x="190" y="23" width="360" height="40" as="geometry" />
        </mxCell>
        <mxCell id="JTioeWE5tVlYT2IAjr-Q-1" value="" style="rounded=0;whiteSpace=wrap;html=1;rotation=90;" parent="1" vertex="1">
          <mxGeometry x="-90" y="330" width="970" height="445.62" as="geometry" />
        </mxCell>
        <mxCell id="8SpzXA7UWkXEX9_-407v-1" value="STUDENT&lt;div&gt;&lt;br&gt;&lt;/div&gt;" style="shape=umlActor;verticalLabelPosition=bottom;verticalAlign=top;html=1;outlineConnect=0;" parent="1" vertex="1">
          <mxGeometry x="80" y="140" width="60" height="80" as="geometry" />
        </mxCell>
        <mxCell id="8SpzXA7UWkXEX9_-407v-4" value="View Results" style="ellipse;whiteSpace=wrap;html=1;" parent="1" vertex="1">
          <mxGeometry x="310" y="160" width="120" height="40" as="geometry" />
        </mxCell>
        <mxCell id="8SpzXA7UWkXEX9_-407v-5" value="Submit Individual projects" style="ellipse;whiteSpace=wrap;html=1;" parent="1" vertex="1">
          <mxGeometry x="420" y="210" width="126" height="50" as="geometry" />
        </mxCell>
        <mxCell id="8SpzXA7UWkXEX9_-407v-7" value="LOGIN" style="ellipse;whiteSpace=wrap;html=1;" parent="1" vertex="1">
          <mxGeometry x="220" y="240" width="120" height="50" as="geometry" />
        </mxCell>
        <mxCell id="8SpzXA7UWkXEX9_-407v-8" value="View sublects" style="ellipse;whiteSpace=wrap;html=1;" parent="1" vertex="1">
          <mxGeometry x="414" y="80" width="116" height="50" as="geometry" />
        </mxCell>
        <mxCell id="8SpzXA7UWkXEX9_-407v-9" value="Attempt Quizzes&amp;nbsp;" style="ellipse;whiteSpace=wrap;html=1;" parent="1" vertex="1">
          <mxGeometry x="225" y="80" width="130" height="50" as="geometry" />
        </mxCell>
        <mxCell id="8SpzXA7UWkXEX9_-407v-15" value="" style="endArrow=classic;html=1;rounded=0;entryX=0.043;entryY=0.7;entryDx=0;entryDy=0;exitX=0.5;exitY=0.5;exitDx=0;exitDy=0;exitPerimeter=0;entryPerimeter=0;" parent="1" source="8SpzXA7UWkXEX9_-407v-1" target="8SpzXA7UWkXEX9_-407v-8" edge="1">
          <mxGeometry width="50" height="50" relative="1" as="geometry">
            <mxPoint x="160" y="186" as="sourcePoint" />
            <mxPoint x="440" y="170" as="targetPoint" />
          </mxGeometry>
        </mxCell>
        <mxCell id="8SpzXA7UWkXEX9_-407v-17" value="" style="endArrow=classic;html=1;rounded=0;entryX=0;entryY=0.5;entryDx=0;entryDy=0;exitX=0.5;exitY=0.5;exitDx=0;exitDy=0;exitPerimeter=0;" parent="1" target="8SpzXA7UWkXEX9_-407v-5" edge="1" source="8SpzXA7UWkXEX9_-407v-1">
          <mxGeometry width="50" height="50" relative="1" as="geometry">
            <mxPoint x="130" y="190" as="sourcePoint" />
            <mxPoint x="250" y="210" as="targetPoint" />
          </mxGeometry>
        </mxCell>
        <mxCell id="8SpzXA7UWkXEX9_-407v-18" value="" style="endArrow=classic;html=1;rounded=0;entryX=0;entryY=0.5;entryDx=0;entryDy=0;exitX=0.5;exitY=0.5;exitDx=0;exitDy=0;exitPerimeter=0;" parent="1" target="8SpzXA7UWkXEX9_-407v-4" edge="1" source="8SpzXA7UWkXEX9_-407v-1">
          <mxGeometry width="50" height="50" relative="1" as="geometry">
            <mxPoint x="150" y="190" as="sourcePoint" />
            <mxPoint x="250" y="210" as="targetPoint" />
          </mxGeometry>
        </mxCell>
        <mxCell id="8SpzXA7UWkXEX9_-407v-23" value="" style="endArrow=classic;html=1;rounded=0;entryX=0.085;entryY=0.78;entryDx=0;entryDy=0;entryPerimeter=0;exitX=0.5;exitY=0.5;exitDx=0;exitDy=0;exitPerimeter=0;" parent="1" target="8SpzXA7UWkXEX9_-407v-9" edge="1" source="8SpzXA7UWkXEX9_-407v-1">
          <mxGeometry width="50" height="50" relative="1" as="geometry">
            <mxPoint x="150" y="170" as="sourcePoint" />
            <mxPoint x="200" y="120" as="targetPoint" />
          </mxGeometry>
        </mxCell>
        <mxCell id="8SpzXA7UWkXEX9_-407v-24" value="" style="endArrow=classic;html=1;rounded=0;entryX=0.058;entryY=0.36;entryDx=0;entryDy=0;entryPerimeter=0;exitX=0.5;exitY=0.5;exitDx=0;exitDy=0;exitPerimeter=0;" parent="1" source="8SpzXA7UWkXEX9_-407v-1" target="8SpzXA7UWkXEX9_-407v-7" edge="1">
          <mxGeometry width="50" height="50" relative="1" as="geometry">
            <mxPoint x="130" y="190" as="sourcePoint" />
            <mxPoint x="250" y="210" as="targetPoint" />
            <Array as="points">
              <mxPoint x="180" y="220" />
              <mxPoint x="200" y="230" />
            </Array>
          </mxGeometry>
        </mxCell>
        <mxCell id="8SpzXA7UWkXEX9_-407v-25" value="LECTURER" style="shape=umlActor;verticalLabelPosition=bottom;verticalAlign=top;html=1;outlineConnect=0;" parent="1" vertex="1">
          <mxGeometry x="70" y="400" width="60" height="120" as="geometry" />
        </mxCell>
        <mxCell id="8SpzXA7UWkXEX9_-407v-27" value="Creates Quizes" style="ellipse;whiteSpace=wrap;html=1;" parent="1" vertex="1">
          <mxGeometry x="250" y="380" width="120" height="60" as="geometry" />
        </mxCell>
        <mxCell id="8SpzXA7UWkXEX9_-407v-28" value="Evaluates projects" style="ellipse;whiteSpace=wrap;html=1;" parent="1" vertex="1">
          <mxGeometry x="430" y="520" width="120" height="55" as="geometry" />
        </mxCell>
        <mxCell id="8SpzXA7UWkXEX9_-407v-29" value="Provides Feedback" style="ellipse;whiteSpace=wrap;html=1;" parent="1" vertex="1">
          <mxGeometry x="210" y="517.5" width="120" height="60" as="geometry" />
        </mxCell>
        <mxCell id="8SpzXA7UWkXEX9_-407v-30" value="Creates Sujects" style="ellipse;whiteSpace=wrap;html=1;" parent="1" vertex="1">
          <mxGeometry x="400" y="440" width="120" height="50" as="geometry" />
        </mxCell>
        <mxCell id="8SpzXA7UWkXEX9_-407v-31" value="" style="endArrow=classic;html=1;rounded=0;exitX=0.5;exitY=0.5;exitDx=0;exitDy=0;exitPerimeter=0;" parent="1" source="8SpzXA7UWkXEX9_-407v-25" target="8SpzXA7UWkXEX9_-407v-7" edge="1">
          <mxGeometry width="50" height="50" relative="1" as="geometry">
            <mxPoint x="200" y="390" as="sourcePoint" />
            <mxPoint x="250" y="340" as="targetPoint" />
          </mxGeometry>
        </mxCell>
        <mxCell id="8SpzXA7UWkXEX9_-407v-32" value="" style="endArrow=classic;html=1;rounded=0;entryX=0.033;entryY=0.683;entryDx=0;entryDy=0;entryPerimeter=0;" parent="1" target="8SpzXA7UWkXEX9_-407v-27" edge="1">
          <mxGeometry width="50" height="50" relative="1" as="geometry">
            <mxPoint x="100" y="459.98" as="sourcePoint" />
            <mxPoint x="240" y="400" as="targetPoint" />
            <Array as="points">
              <mxPoint x="160" y="439.98" />
            </Array>
          </mxGeometry>
        </mxCell>
        <mxCell id="8SpzXA7UWkXEX9_-407v-33" value="" style="endArrow=classic;html=1;rounded=0;entryX=0.083;entryY=0.233;entryDx=0;entryDy=0;entryPerimeter=0;exitX=0.5;exitY=0.5;exitDx=0;exitDy=0;exitPerimeter=0;" parent="1" target="8SpzXA7UWkXEX9_-407v-28" edge="1" source="8SpzXA7UWkXEX9_-407v-25">
          <mxGeometry width="50" height="50" relative="1" as="geometry">
            <mxPoint x="120" y="475" as="sourcePoint" />
            <mxPoint x="390" y="440" as="targetPoint" />
            <Array as="points">
              <mxPoint x="280" y="500" />
            </Array>
          </mxGeometry>
        </mxCell>
        <mxCell id="8SpzXA7UWkXEX9_-407v-34" value="" style="endArrow=classic;html=1;rounded=0;" parent="1" edge="1">
          <mxGeometry width="50" height="50" relative="1" as="geometry">
            <mxPoint x="100" y="460" as="sourcePoint" />
            <mxPoint x="400" y="460" as="targetPoint" />
          </mxGeometry>
        </mxCell>
        <mxCell id="8SpzXA7UWkXEX9_-407v-36" value="" style="endArrow=classic;html=1;rounded=0;entryX=0.067;entryY=0.308;entryDx=0;entryDy=0;entryPerimeter=0;" parent="1" target="8SpzXA7UWkXEX9_-407v-29" edge="1">
          <mxGeometry width="50" height="50" relative="1" as="geometry">
            <mxPoint x="100" y="460" as="sourcePoint" />
            <mxPoint x="180" y="450" as="targetPoint" />
          </mxGeometry>
        </mxCell>
        <mxCell id="8SpzXA7UWkXEX9_-407v-37" value="ADMIN" style="shape=umlActor;verticalLabelPosition=bottom;verticalAlign=top;html=1;outlineConnect=0;" parent="1" vertex="1">
          <mxGeometry x="70" y="720" width="60" height="110" as="geometry" />
        </mxCell>
        <mxCell id="8SpzXA7UWkXEX9_-407v-38" value="Manage System Settings" style="ellipse;whiteSpace=wrap;html=1;" parent="1" vertex="1">
          <mxGeometry x="305" y="700" width="170" height="60" as="geometry" />
        </mxCell>
        <mxCell id="8SpzXA7UWkXEX9_-407v-39" value="Monitor Activity" style="ellipse;whiteSpace=wrap;html=1;" parent="1" vertex="1">
          <mxGeometry x="310" y="920" width="170" height="60" as="geometry" />
        </mxCell>
        <mxCell id="8SpzXA7UWkXEX9_-407v-40" value="Manage Users" style="ellipse;whiteSpace=wrap;html=1;" parent="1" vertex="1">
          <mxGeometry x="300" y="810" width="175" height="60" as="geometry" />
        </mxCell>
        <mxCell id="8SpzXA7UWkXEX9_-407v-42" value="" style="endArrow=classic;html=1;rounded=0;exitX=0.5;exitY=0.5;exitDx=0;exitDy=0;exitPerimeter=0;" parent="1" source="8SpzXA7UWkXEX9_-407v-37" edge="1">
          <mxGeometry width="50" height="50" relative="1" as="geometry">
            <mxPoint x="255" y="780" as="sourcePoint" />
            <mxPoint x="305" y="730" as="targetPoint" />
          </mxGeometry>
        </mxCell>
        <mxCell id="8SpzXA7UWkXEX9_-407v-43" value="" style="endArrow=classic;html=1;rounded=0;entryX=0;entryY=0.5;entryDx=0;entryDy=0;exitX=0.5;exitY=0.5;exitDx=0;exitDy=0;exitPerimeter=0;" parent="1" source="8SpzXA7UWkXEX9_-407v-37" target="8SpzXA7UWkXEX9_-407v-40" edge="1">
          <mxGeometry width="50" height="50" relative="1" as="geometry">
            <mxPoint x="200" y="840" as="sourcePoint" />
            <mxPoint x="250" y="790" as="targetPoint" />
          </mxGeometry>
        </mxCell>
        <mxCell id="8SpzXA7UWkXEX9_-407v-44" value="" style="endArrow=classic;html=1;rounded=0;exitX=0.5;exitY=0.5;exitDx=0;exitDy=0;exitPerimeter=0;" parent="1" source="8SpzXA7UWkXEX9_-407v-37" edge="1">
          <mxGeometry width="50" height="50" relative="1" as="geometry">
            <mxPoint x="265" y="990" as="sourcePoint" />
            <mxPoint x="315" y="940" as="targetPoint" />
          </mxGeometry>
        </mxCell>
      </root>
    </mxGraphModel>
  </diagram>
  <diagram id="Ej8Pw66P8OBYjXn0RBdq" name="Page-2">
    <mxGraphModel dx="863" dy="532" grid="1" gridSize="10" guides="1" tooltips="1" connect="1" arrows="1" fold="1" page="1" pageScale="1" pageWidth="827" pageHeight="1169" math="0" shadow="0">
      <root>
        <mxCell id="0" />
        <mxCell id="1" parent="0" />
      </root>
    </mxGraphModel>
  </diagram>
</mxfile>
